<?xml version="1.0" standalone="no"?>
<!DOCTYPE svg PUBLIC "-//W3C//DTD SVG 20010904//EN"
 "http://www.w3.org/TR/2001/REC-SVG-20010904/DTD/svg10.dtd">
<svg version="1.0" xmlns="http://www.w3.org/2000/svg"
 width="526.000000pt" height="500.000000pt" viewBox="0 0 526.000000 500.000000"
 preserveAspectRatio="xMidYMid meet">

<g transform="translate(0.000000,500.000000) scale(0.100000,-0.100000)"
fill="#000000" stroke="none">
<path d="M1743 4920 c0 -47 2 -66 4 -42 2 23 2 61 0 85 -2 23 -4 4 -4 -43z"/>
<path d="M2400 4948 c-6 -29 -16 -96 -21 -148 -13 -139 -24 -166 -68 -178 -20
-6 -83 -29 -141 -52 -58 -23 -150 -57 -205 -77 -113 -39 -118 -41 -196 -77
-31 -14 -66 -26 -78 -26 -12 0 -32 -11 -45 -25 -13 -14 -27 -25 -32 -25 -5 0
-18 -13 -28 -29 -20 -29 -111 -91 -134 -91 -12 0 -52 -20 -62 -30 -3 -4 -25
-12 -49 -19 -47 -13 -127 -48 -248 -108 -40 -19 -73 -34 -75 -32 -2 1 -22 -8
-46 -20 -23 -12 -54 -26 -68 -32 l-26 -9 4 275 c2 151 0 275 -4 275 -5 0 -8
-125 -8 -278 l0 -277 -57 -25 c-32 -14 -59 -23 -61 -20 -6 9 -2 473 5 538 4
43 2 62 -6 62 -8 0 -11 -73 -11 -264 0 -145 -3 -284 -6 -310 -6 -42 -11 -49
-56 -76 -27 -17 -53 -28 -57 -25 -5 2 -16 -4 -26 -15 -13 -14 -31 -20 -60 -20
-52 0 -139 -25 -155 -46 -8 -8 -20 -19 -29 -24 -14 -7 -16 28 -16 365 l0 373
54 6 c30 4 57 4 60 0 8 -8 8 2 10 -351 1 -211 4 -313 11 -313 8 0 11 104 10
323 -1 177 -1 328 -1 335 1 6 8 12 16 12 8 0 15 5 15 10 0 6 -9 10 -20 10 -13
0 -18 5 -14 15 4 8 14 15 23 15 10 0 12 -3 4 -8 -6 -4 93 -6 220 -5 128 1 269
0 314 -3 74 -5 82 -8 86 -27 4 -22 4 -22 6 1 1 20 6 22 53 22 28 0 49 2 46 5
-2 3 -157 10 -344 15 -487 16 -485 16 -533 34 -24 9 -59 16 -78 16 -23 0 -32
4 -27 11 5 9 -2 10 -22 6 -16 -3 -23 -4 -16 -1 10 5 9 9 -5 20 -21 16 -83 19
-83 4 0 -9 23 -14 57 -13 7 1 10 -4 7 -9 -4 -5 -22 -7 -43 -4 -25 5 -32 4 -21
-3 12 -9 12 -11 -3 -17 -22 -8 -22 -25 3 -52 11 -12 20 -27 20 -34 1 -34 16
-40 51 -23 19 10 36 21 39 26 8 12 34 -7 26 -20 -4 -6 -16 -11 -27 -11 -10 0
-19 -7 -19 -15 0 -11 11 -15 39 -15 l38 0 8 -67 c10 -94 25 -448 28 -648 0 -5
-13 -37 -29 -70 -39 -79 -57 -141 -88 -300 -21 -105 -20 -119 7 -160 32 -49
104 -79 177 -72 55 5 200 69 301 133 21 13 41 24 43 24 3 0 7 -28 9 -62 l3
-63 2 66 2 67 83 65 c45 36 108 98 141 136 32 39 61 71 64 71 2 0 2 -21 -1
-47 -14 -124 102 -221 200 -168 32 18 35 18 128 -6 l95 -23 1 -61 c4 -215 25
-445 48 -525 21 -73 41 -235 40 -318 -1 -48 -4 -77 -6 -64 -3 17 -8 20 -16 13
-9 -6 -33 0 -76 20 -51 24 -83 31 -154 35 -96 6 -163 22 -96 23 23 1 43 8 55
22 19 21 18 21 -9 45 -34 29 -47 30 -47 3 0 -12 -5 -19 -12 -16 -7 2 -12 10
-10 16 1 6 -11 11 -27 11 -16 0 -31 5 -33 11 -5 15 -115 16 -129 2 -6 -6 5
-14 32 -22 32 -10 39 -15 28 -22 -12 -8 -11 -12 6 -24 11 -8 25 -19 32 -25 7
-5 17 -10 23 -10 5 0 10 -6 10 -13 0 -8 11 -20 25 -27 24 -13 42 -46 31 -57
-3 -3 -25 4 -49 16 -24 11 -53 21 -64 21 -12 0 -24 7 -27 16 -4 12 -13 14 -29
9 -69 -22 -142 -33 -158 -24 -20 10 -72 -8 -63 -22 3 -5 -13 -9 -35 -9 -37 0
-41 -2 -41 -26 0 -17 -6 -28 -20 -31 -11 -3 -20 -11 -20 -18 0 -20 -35 -45
-63 -45 -18 0 -27 5 -27 16 0 8 -7 22 -15 30 -13 14 -17 14 -30 0 -8 -8 -24
-18 -35 -21 -11 -3 -20 -14 -20 -23 0 -10 -10 -23 -21 -31 -19 -11 -21 -11
-16 2 7 18 -39 28 -71 16 -20 -7 -40 -65 -34 -96 2 -6 -2 -14 -8 -18 -11 -7
-14 -45 -3 -45 4 0 16 9 28 20 19 18 24 19 34 6 9 -11 8 -17 -4 -30 -9 -9 -15
-24 -13 -33 3 -15 4 -15 19 -1 20 20 33 12 47 -29 8 -25 8 -34 -4 -44 -20 -16
-19 -63 1 -55 23 9 48 -4 35 -19 -6 -8 -6 -20 3 -38 13 -29 41 -36 51 -12 11
31 27 14 24 -26 -2 -33 3 -45 20 -59 26 -21 28 -30 7 -30 -8 0 -15 -7 -15 -16
0 -8 4 -13 9 -9 12 7 17 -1 26 -42 6 -29 4 -33 -14 -33 -12 0 -21 5 -21 11 0
5 -4 8 -9 5 -5 -3 -16 4 -25 17 -45 63 -66 100 -66 117 0 25 -17 26 -24 2 -2
-9 -4 0 -3 21 1 32 -3 40 -26 52 -25 13 -40 4 -17 -10 17 -11 11 -37 -7 -33
-13 3 -18 13 -18 39 0 73 -143 190 -146 120 0 -12 -2 -11 -8 4 -5 11 -4 25 1
32 5 7 7 21 3 32 -7 24 -52 54 -69 48 -16 -6 -31 -88 -18 -96 16 -11 22 -42
11 -62 -5 -11 -13 -18 -17 -15 -4 3 -13 -8 -20 -23 -10 -23 -17 -27 -38 -23
-20 3 -26 0 -31 -17 -3 -11 -12 -21 -19 -21 -10 0 -14 -14 -14 -50 0 -57 11
-65 25 -18 7 22 19 36 37 42 15 5 30 7 33 4 3 -2 1 -28 -5 -56 -5 -29 -7 -59
-4 -67 9 -22 34 -18 34 6 0 11 10 29 23 40 15 12 17 18 8 19 -12 0 -12 3 -3
12 7 7 12 28 12 47 0 25 3 32 11 24 12 -12 15 -75 4 -114 -5 -18 -2 -31 9 -42
15 -14 14 -16 -6 -23 -13 -5 -26 -7 -30 -6 -5 1 -8 -5 -8 -13 0 -10 10 -15 30
-15 20 0 30 -5 30 -15 0 -8 -5 -15 -11 -15 -6 0 -1 -9 12 -20 17 -14 20 -19 9
-20 -8 0 -21 -9 -28 -20 -7 -11 -23 -20 -36 -20 -26 0 -53 -25 -37 -34 5 -4
12 -2 16 4 3 5 18 10 32 10 13 0 38 9 54 21 41 29 83 23 87 -14 2 -16 -1 -34
-6 -40 -17 -22 -2 -82 25 -99 l25 -15 -31 -23 c-37 -25 -40 -24 -43 16 -1 16
-8 34 -16 39 -10 8 -11 17 -3 38 14 35 14 47 1 47 -5 0 -10 -7 -10 -15 0 -19
-16 -19 -24 0 -3 8 -13 15 -22 15 -16 0 -16 -1 -1 -18 13 -14 15 -30 10 -75
-5 -54 -4 -59 16 -64 17 -4 21 -13 21 -47 l1 -41 16 30 17 30 6 -38 c9 -52 20
-58 20 -10 0 43 10 53 56 53 22 0 24 -4 24 -54 0 -30 5 -58 10 -61 6 -3 10
-17 10 -31 0 -13 5 -24 11 -24 6 0 20 -11 31 -25 25 -32 38 -32 38 0 0 16 -6
25 -16 25 -21 0 -16 93 6 98 12 2 15 -14 18 -88 1 -56 -2 -90 -8 -90 -6 0 -23
-14 -39 -32 -37 -42 -55 -31 -47 31 3 25 3 40 0 34 -9 -21 -21 -15 -34 17 -14
34 -40 40 -40 10 0 -11 -7 -20 -15 -20 -8 0 -20 9 -27 20 -7 11 -20 20 -29 20
-10 0 -26 18 -38 43 l-21 42 0 -41 c0 -34 4 -43 21 -47 11 -3 23 -15 26 -26 3
-12 9 -21 13 -21 5 0 11 -14 15 -30 4 -17 15 -35 26 -40 19 -11 27 -40 10 -40
-5 0 -12 -19 -16 -42 -7 -41 -7 -42 -17 -18 -6 14 -24 54 -39 89 -16 35 -29
69 -29 76 0 8 -7 21 -16 30 -14 13 -19 14 -26 3 -6 -8 -8 3 -4 32 3 25 3 39 0
33 -9 -20 -20 -15 -32 12 -10 21 -9 25 3 25 8 0 15 7 15 15 0 8 5 15 10 15 6
0 10 11 10 25 0 30 -25 34 -33 5 -3 -11 -14 -20 -24 -20 -19 0 -34 14 -81 74
l-22 29 0 -652 0 -651 2630 0 2630 0 0 1023 -1 1022 -20 -25 c-35 -44 -83 -92
-119 -119 -19 -14 -77 -71 -130 -126 -167 -174 -203 -209 -290 -273 l-85 -64
-60 6 c-72 7 -230 49 -251 67 -9 7 -24 29 -34 48 -10 20 -37 58 -59 84 -22 27
-55 73 -72 104 l-32 56 16 46 c24 68 31 118 17 126 -8 5 -8 10 0 20 6 7 13 36
17 64 3 28 9 51 12 51 6 0 10 24 11 68 1 9 -4 64 -11 121 -12 115 -11 123 58
386 45 170 57 265 51 402 -5 99 -3 114 13 129 10 9 15 22 13 29 -3 7 2 29 10
50 9 20 13 41 10 46 -3 5 -1 16 4 26 7 12 27 17 80 20 66 3 72 2 83 -19 11
-21 38 -57 173 -232 104 -134 282 -294 363 -325 61 -23 136 -27 194 -9 l39 11
0 419 0 418 -24 0 c-17 0 -41 18 -78 57 -85 92 -172 173 -185 173 -7 0 -13 3
-13 8 0 4 -23 21 -51 37 -28 17 -57 36 -64 43 -8 6 -21 12 -29 12 -9 0 -16 4
-16 8 0 5 -10 14 -22 21 -13 6 -36 20 -53 31 -16 11 -59 34 -95 52 -36 18 -69
38 -75 44 -5 6 -25 17 -42 24 -18 7 -33 16 -33 19 0 11 -57 36 -123 55 -104
30 -164 65 -223 130 -74 79 -164 156 -184 156 -9 0 -46 8 -81 19 -101 29 -149
41 -219 55 -36 7 -112 27 -170 43 -153 45 -235 55 -376 47 l-122 -7 4 47 c4
42 2 47 -22 56 -33 13 -34 13 -34 -5 0 -8 4 -15 9 -15 5 0 12 -8 15 -17 6 -15
5 -15 -13 1 -25 22 -34 56 -15 56 8 0 14 11 15 28 1 26 1 26 13 -7 16 -44 32
-23 30 39 -1 25 -2 66 -3 93 l-1 47 -284 0 -284 0 -12 -52z m560 -77 c0 -5 -9
-11 -20 -14 -22 -6 -28 8 -7 16 19 8 27 8 27 -2z m-43 -53 c-3 -8 -6 -5 -6 6
-1 11 2 17 5 13 3 -3 4 -12 1 -19z m-167 -84 c0 -4 -13 -22 -30 -41 -16 -18
-30 -38 -30 -43 0 -6 -11 -10 -25 -10 -23 0 -24 2 -13 25 6 14 16 25 23 25 6
0 22 11 35 25 22 24 40 32 40 19z m-2570 -218 c0 -3 -4 -8 -10 -11 -5 -3 -10
-1 -10 4 0 6 5 11 10 11 6 0 10 -2 10 -4z m205 -6 c-3 -5 -21 -10 -38 -9 -31
1 -31 1 -7 9 36 11 52 11 45 0z m58 3 c-7 -2 -21 -2 -30 0 -10 3 -4 5 12 5 17
0 24 -2 18 -5z m3252 -544 c25 -23 45 -47 45 -53 0 -6 -15 5 -33 25 -17 19
-43 43 -57 52 -13 9 -19 17 -12 17 7 0 33 -19 57 -41z m71 -123 c16 -16 19
-36 5 -36 -5 0 -11 -27 -13 -60 -7 -95 -64 -140 -180 -140 -108 0 -135 8 -166
50 -15 20 -33 35 -39 33 -7 -3 -13 0 -13 6 0 6 5 11 11 11 7 0 9 10 5 26 -9
34 0 61 23 67 14 3 17 0 14 -13 -7 -26 30 -45 47 -25 19 22 32 18 19 -6 -14
-26 -6 -33 53 -49 67 -18 78 -11 78 50 0 31 4 50 11 50 8 0 10 -16 6 -50 -6
-47 4 -73 18 -50 4 6 11 8 16 5 20 -13 66 49 73 98 8 51 10 54 32 33z m-2013
-109 c-3 -20 -9 -34 -13 -32 -5 3 -3 21 3 40 13 44 18 40 10 -8z m1601 -30
c-7 -53 -24 -64 -24 -16 0 30 17 75 26 66 2 -2 1 -25 -2 -50z m546 -65 c-5 -2
-10 -21 -10 -42 0 -21 -4 -40 -10 -42 -11 -3 -2 -78 10 -78 4 0 15 15 24 33 8
17 16 25 17 17 1 -20 5 -41 23 -128 8 -40 13 -79 10 -87 -4 -8 3 -15 17 -17
17 -2 26 -13 34 -40 6 -20 16 -43 23 -50 6 -6 12 -17 12 -23 0 -6 10 -19 21
-29 17 -14 20 -25 16 -52 -4 -22 -2 -32 4 -28 7 4 8 -17 4 -62 -6 -65 -5 -71
19 -99 28 -32 32 -45 16 -45 -5 0 -10 8 -10 17 0 13 -3 14 -12 5 -10 -10 -10
-17 0 -32 7 -12 8 -20 2 -20 -5 0 -10 -18 -10 -39 0 -22 -5 -43 -10 -46 -6 -4
-8 -15 -5 -26 4 -13 2 -19 -8 -19 -23 0 -42 -29 -29 -42 7 -7 12 -18 12 -26 0
-12 -3 -12 -16 -2 -13 11 -16 10 -21 -8 -3 -12 -14 -24 -25 -28 -15 -4 -16 -9
-8 -19 9 -11 6 -16 -11 -26 -22 -11 -22 -12 -4 -25 17 -13 17 -14 -12 -14 -17
0 -37 -8 -47 -19 -22 -24 -17 -57 7 -53 11 2 15 -2 11 -13 -3 -8 -10 -13 -15
-10 -4 3 -20 2 -36 -1 -25 -7 -25 -8 -8 -15 19 -8 19 -8 -2 -15 -29 -8 -19
-24 15 -24 31 0 61 -34 38 -43 -9 -4 -16 3 -20 16 -9 35 -15 15 -19 -68 -2
-47 -9 -81 -16 -83 -14 -5 -15 -32 -1 -32 6 0 10 -4 10 -9 0 -5 -8 -8 -17 -7
-11 0 -18 -6 -18 -16 0 -9 -9 -26 -19 -37 -17 -19 -22 -34 -25 -77 -1 -7 -13
-15 -28 -19 -45 -11 -64 -33 -50 -56 10 -16 9 -21 -2 -28 -8 -5 -11 -16 -8
-24 3 -9 -1 -18 -10 -21 -9 -4 -13 -13 -9 -22 4 -9 2 -13 -5 -8 -7 4 -9 0 -5
-14 4 -11 2 -23 -3 -27 -7 -3 -8 0 -5 9 8 22 -1 20 -32 -7 -25 -21 -26 -24
-20 -107 4 -56 3 -80 -3 -70 -5 8 -8 17 -5 21 2 4 -9 33 -25 66 -27 53 -38 94
-46 165 -2 14 -6 32 -10 38 -4 6 -1 17 5 25 17 20 5 57 -29 94 -34 36 -71 42
-71 11 0 -14 -7 -20 -23 -20 -25 0 -47 17 -47 36 0 16 51 94 62 94 4 0 8 11 8
25 0 16 -5 23 -13 19 -9 -3 -12 7 -10 38 2 41 2 42 -9 16 -14 -34 -21 -35 -37
-4 -16 29 -6 86 15 86 8 0 14 -6 13 -12 -4 -31 2 -40 21 -35 15 4 20 0 20 -14
0 -10 4 -19 10 -19 5 0 7 21 3 50 -4 33 -2 55 7 65 10 12 8 18 -10 33 -20 16
-21 22 -12 55 6 20 8 64 5 97 -4 46 -3 60 6 58 7 -2 18 4 24 13 13 21 1 53
-18 45 -15 -5 -23 15 -45 119 -9 41 -16 53 -40 64 -30 13 -53 19 -77 20 -29 2
-10 19 27 25 22 3 40 11 40 16 0 6 8 10 18 10 12 0 25 14 37 40 13 28 21 37
27 28 18 -30 6 7 -23 66 -23 47 -38 66 -56 71 -21 5 -24 10 -18 33 4 15 9 29
11 31 8 8 41 -34 36 -47 -4 -12 24 -41 40 -42 4 0 7 10 7 23 -1 12 0 29 3 37
3 8 3 12 1 8 -3 -5 -11 -8 -19 -8 -17 0 -17 8 1 40 19 33 18 38 -2 43 -10 3
-4 5 14 6 40 1 63 -8 63 -25 0 -8 5 -14 10 -14 20 0 10 45 -12 55 -41 19 -34
36 11 29 33 -5 42 -3 47 10 4 11 13 15 25 11 13 -4 19 -1 19 9 0 16 -11 20
-39 17 -7 -2 -11 4 -9 11 3 7 15 14 29 16 18 2 29 -5 42 -28 10 -16 23 -30 28
-30 6 0 1 16 -11 35 -18 29 -19 35 -6 35 9 0 16 -5 16 -10 0 -6 8 -5 20 2 11
7 20 18 20 25 0 6 18 33 40 60 23 26 49 58 59 70 10 12 29 47 42 78 20 50 39
71 39 45 0 -5 5 -10 11 -10 7 0 9 15 5 43 l-6 42 15 -40 c10 -25 12 -41 5 -43z
m-2043 22 c-2 -2 -15 0 -28 5 -24 10 -24 10 -1 10 12 1 23 7 23 14 1 6 3 4 6
-6 3 -10 3 -21 0 -23z m-169 -15 c26 -50 61 -70 123 -71 38 -1 67 5 96 20 49
26 63 27 63 8 0 -42 -77 -83 -188 -101 -38 -6 -45 -4 -70 23 -30 32 -52 91
-52 137 0 32 5 30 28 -16z m1612 -13 c0 -3 -4 -8 -10 -11 -5 -3 -10 -1 -10 4
0 6 5 11 10 11 6 0 10 -2 10 -4z m375 -226 c-3 -5 -10 -10 -16 -10 -5 0 -9 5
-9 10 0 6 7 10 16 10 8 0 12 -4 9 -10z m-65 -20 c0 -5 -2 -10 -4 -10 -3 0 -8
5 -11 10 -3 6 -1 10 4 10 6 0 11 -4 11 -10z m-1675 -317 c-6 -25 -8 -26 -15
-8 -4 11 -5 38 -2 60 l5 40 10 -32 c5 -17 6 -44 2 -60z m-209 11 c8 -20 24
-45 34 -56 12 -13 21 -42 25 -77 3 -31 10 -95 15 -142 6 -48 7 -94 4 -104 -4
-10 2 -29 16 -47 22 -30 22 -32 6 -80 -9 -28 -16 -62 -16 -77 0 -28 -28 -169
-36 -183 -9 -14 -28 -8 -59 17 l-30 25 33 0 c20 0 31 4 27 10 -4 6 -11 8 -16
5 -5 -4 -9 1 -9 9 0 9 6 16 14 16 8 0 16 16 20 42 4 22 10 46 14 52 11 17 31
98 32 126 0 24 -29 111 -40 120 -20 16 -60 88 -60 110 -1 14 -7 36 -15 50 -9
16 -14 54 -15 103 0 66 2 77 17 77 13 0 14 3 5 12 -16 16 -15 28 4 28 8 0 22
-16 30 -36z m194 -71 c-1 -16 -12 -41 -25 -58 l-25 -30 1 55 c1 30 3 47 6 38
6 -25 33 -23 33 2 0 11 2 20 5 20 3 0 5 -12 5 -27z m550 -173 c-8 -5 -32 -9
-53 -8 -50 2 -25 18 28 18 29 0 36 -3 25 -10z m920 -36 c0 -7 -7 -14 -15 -18
-9 -3 -15 0 -15 8 0 8 -3 22 -6 31 -6 15 -4 15 15 4 11 -8 21 -19 21 -25z
m-256 -53 c12 -13 17 -30 14 -45 -3 -14 -2 -27 2 -28 4 -2 10 -20 14 -40 9
-49 -18 -54 -29 -5 -4 17 -9 26 -12 19 -7 -19 -33 5 -33 32 0 12 -7 31 -15 44
-12 17 -13 26 -5 42 12 23 31 17 64 -19z m-1224 0 c-12 -23 -30 -28 -30 -10 0
12 32 40 38 34 2 -2 -1 -13 -8 -24z m-63 -83 c-3 -7 -5 -2 -5 12 0 14 2 19 5
13 2 -7 2 -19 0 -25z m1453 -219 c0 -5 -4 -9 -10 -9 -5 0 -10 7 -10 16 0 8 5
12 10 9 6 -3 10 -10 10 -16z m53 -34 c-4 -15 -36 -12 -41 3 -3 9 3 13 19 10
13 -1 23 -7 22 -13z m-2060 -62 c-7 -2 -19 -2 -25 0 -7 3 -2 5 12 5 14 0 19
-2 13 -5z m-61 -41 c7 -10 22 -24 33 -31 18 -11 18 -11 -5 -5 -27 7 -60 32
-60 46 0 14 18 9 32 -10z m-62 -22 c0 -10 -20 -14 -53 -12 -11 1 -21 -6 -24
-18 -3 -12 -14 -20 -27 -20 -20 1 -19 2 8 26 16 14 34 23 41 21 6 -3 18 -1 26
4 19 12 29 11 29 -1z m-610 -49 c0 -30 -11 -51 -26 -51 -8 0 -14 -4 -14 -10 0
-5 -4 -10 -10 -10 -17 0 -11 29 10 47 11 10 20 23 20 30 0 7 5 13 10 13 6 0
10 -9 10 -19z m480 -30 c0 -6 -4 -13 -10 -16 -5 -3 -10 1 -10 9 0 9 5 16 10
16 6 0 10 -4 10 -9z m1792 -53 c-6 -6 -16 -8 -22 -6 -9 3 -7 9 6 22 13 13 19
15 22 6 2 -6 0 -16 -6 -22z m-337 2 c3 -5 1 -10 -4 -10 -6 0 -11 5 -11 10 0 6
2 10 4 10 3 0 8 -4 11 -10z m-856 -65 l0 -20 -9 20 c-5 11 -9 27 -9 35 -1 13
0 13 9 0 5 -8 9 -24 9 -35z m921 31 c0 -8 7 -16 15 -20 8 -3 15 -10 15 -16 0
-14 -33 -13 -48 2 -17 17 -15 48 3 48 8 0 15 -6 15 -14z m-2045 -16 c-3 -5
-13 -6 -21 -3 -12 4 -13 8 -3 14 15 9 32 2 24 -11z m-70 -19 c-3 -12 -10 -21
-15 -21 -5 0 -4 11 2 25 13 29 23 26 13 -4z m665 -41 c12 -8 11 -10 -7 -10
-18 0 -23 -6 -23 -27 0 -16 -5 -35 -10 -43 -14 -22 -13 32 2 65 12 28 16 29
38 15z m-60 -105 c0 -5 -4 -3 -10 5 -5 8 -12 11 -16 7 -4 -4 -2 -13 4 -19 7
-7 12 -22 12 -35 0 -19 -7 -24 -39 -29 -32 -5 -40 -12 -51 -40 -19 -48 -39
-44 -37 9 l2 42 47 0 c49 1 75 15 64 34 -4 5 -13 8 -21 4 -22 -8 -18 13 7 37
21 20 38 13 38 -15z m2385 25 c3 -5 1 -10 -4 -10 -6 0 -11 5 -11 10 0 6 2 10
4 10 3 0 8 -4 11 -10z m-2691 -97 c-3 -27 -9 -52 -12 -58 -3 -5 -5 -28 -3 -52
1 -24 -2 -43 -7 -43 -5 0 -12 -24 -15 -52 -5 -54 12 -116 40 -149 28 -33 12
-32 -19 1 -18 20 -35 52 -39 75 -12 58 -11 205 1 205 5 0 13 18 16 40 4 22 10
40 15 40 5 0 9 9 9 20 0 11 5 20 11 20 7 0 8 -16 3 -47z m-544 -3 c0 -5 -4
-10 -10 -10 -5 0 -10 5 -10 10 0 6 5 10 10 10 6 0 10 -4 10 -10z m370 3 c0 -5
-5 -15 -10 -23 -8 -12 -10 -11 -10 8 0 12 5 22 10 22 6 0 10 -3 10 -7z m-294
-59 c1 -39 -5 -54 -23 -54 -11 0 -13 5 -8 18 4 9 7 30 6 45 -1 19 3 27 11 25
7 -3 13 -18 14 -34z m2104 -12 c0 -10 5 -23 12 -30 14 -14 -7 -122 -24 -122
-6 0 -20 -8 -31 -17 -18 -17 -20 -17 -34 2 -21 29 -11 93 22 143 29 44 55 55
55 24z m-2143 -74 c-3 -8 -6 -5 -6 6 -1 11 2 17 5 13 3 -3 4 -12 1 -19z m3410
0 c-3 -8 -6 -5 -6 6 -1 11 2 17 5 13 3 -3 4 -12 1 -19z m-3184 -30 c2 -13 8
-32 11 -43 4 -11 -2 -4 -13 15 -22 39 -25 50 -12 50 5 0 11 -10 14 -22z m377
-8 c0 -5 -5 -10 -11 -10 -5 0 -7 5 -4 10 3 6 8 10 11 10 2 0 4 -4 4 -10z
m2562 -45 c15 -20 8 -45 -12 -45 -11 0 -20 6 -20 14 0 8 -3 21 -6 29 -6 17 26
19 38 2z m-1172 -45 c0 -5 -12 -10 -26 -10 -14 0 -23 4 -19 10 3 6 15 10 26
10 10 0 19 -4 19 -10z m1088 -20 c0 -23 -4 -30 -19 -30 -22 0 -24 12 -7 40 18
28 25 25 26 -10z m-843 6 c28 -8 46 -15 42 -15 -13 -2 20 -31 35 -31 9 0 10 2
2 8 -9 5 -8 11 2 20 12 10 14 10 14 -2 0 -9 9 -31 20 -51 23 -41 25 -58 8 -53
-7 3 -15 18 -18 34 -5 28 -7 29 -53 26 -43 -4 -48 -2 -64 27 -18 31 -33 40
-33 21 0 -5 -7 -10 -15 -10 -8 0 -15 4 -15 10 0 5 -6 7 -13 4 -7 -2 -29 2 -48
10 l-34 15 60 0 c33 1 83 -6 110 -13z m252 -12 c10 -10 10 -13 0 -17 -6 -3 0
-6 16 -6 21 -1 27 -6 27 -23 0 -42 -42 -68 -84 -52 -18 7 -23 89 -6 99 6 4 8
11 5 16 -8 12 27 -2 42 -17z m-581 0 c-9 -8 -16 -28 -16 -44 0 -16 -5 -32 -11
-35 -7 -5 -5 -15 6 -31 19 -29 12 -44 -20 -44 -14 0 -25 -7 -28 -17 -3 -10 -3
2 0 27 3 25 12 50 19 56 16 13 19 50 4 59 -14 8 -3 24 24 35 32 13 39 12 22
-6z m1384 -36 c0 -32 -15 -45 -25 -21 -3 10 -1 19 4 21 6 2 8 15 5 30 -4 21
-3 24 5 12 6 -8 11 -27 11 -42z m-3253 20 c-3 -8 -6 -5 -6 6 -1 11 2 17 5 13
3 -3 4 -12 1 -19z m363 2 c18 -12 2 -12 -25 0 -13 6 -15 9 -5 9 8 0 22 -4 30
-9z m1664 4 c20 -8 21 -53 1 -60 -21 -9 -65 23 -65 46 0 21 30 27 64 14z m564
-13 c21 -13 10 -44 -18 -51 -42 -10 -60 -1 -60 31 0 26 3 29 33 29 17 0 38 -4
45 -9z m-418 -23 c0 -13 -4 -28 -8 -34 -22 -32 -82 -18 -82 19 0 32 7 37 52
37 33 0 38 -3 38 -22z m-1630 -40 c0 -5 10 -6 23 -3 13 4 17 3 10 -2 -9 -6 2
-15 32 -28 29 -13 45 -27 48 -42 2 -13 1 -23 -3 -23 -3 0 -33 20 -64 45 -32
25 -60 45 -62 45 -2 0 -3 -17 -2 -37 2 -42 -8 -85 -28 -123 -7 -14 -21 -50
-30 -80 -11 -33 -20 -48 -22 -37 -2 10 3 36 12 58 9 22 16 50 16 63 0 12 8 30
18 40 12 10 20 33 22 64 4 71 4 75 -5 97 -7 17 -5 16 13 -4 12 -13 22 -28 22
-33z m2335 20 c7 -29 9 -30 12 -10 8 41 28 26 50 -38 17 -48 17 -71 -2 -64 -8
4 -15 1 -15 -5 0 -6 -16 -10 -37 -9 -32 1 -44 9 -78 49 -44 53 -53 71 -34 68
24 -4 67 12 73 27 9 24 23 16 31 -18z m-2621 -18 c4 -25 3 -31 -4 -20 -5 8
-10 26 -10 39 0 32 6 24 14 -19z m-134 -2 c0 -5 -4 -8 -10 -8 -5 0 -10 10 -10
23 0 18 2 19 10 7 5 -8 10 -18 10 -22z m2630 -10 c0 -11 -9 -33 -21 -49 -11
-16 -16 -29 -10 -29 6 0 11 -4 11 -10 0 -5 -6 -10 -13 -10 -20 0 -95 -38 -99
-50 -2 -6 -26 -12 -53 -15 -28 -2 -58 -6 -68 -10 -22 -9 -42 8 -34 28 5 14 76
32 110 28 10 -2 17 3 16 11 -3 27 1 37 16 32 8 -4 15 -1 15 6 0 6 5 8 10 5 6
-4 8 -11 5 -16 -7 -11 -3 -11 19 -3 9 3 16 11 16 16 0 6 8 16 17 23 10 7 18
24 18 37 1 13 5 30 9 36 11 18 36 -4 36 -30z m-527 13 c-2 -6 2 -11 7 -11 6 0
10 5 10 10 0 6 5 10 10 10 6 0 10 -10 10 -21 0 -17 -4 -20 -22 -15 -13 3 -26
6 -30 6 -5 0 -8 9 -8 21 0 12 5 19 13 16 6 -2 11 -10 10 -16z m137 -7 c0 -8
-5 -12 -10 -9 -6 4 -8 11 -5 16 9 14 15 11 15 -7z m720 -4 c0 -5 -5 -10 -11
-10 -5 0 -7 5 -4 10 3 6 8 10 11 10 2 0 4 -4 4 -10z m170 -36 c-5 -19 -12 -39
-16 -42 -4 -4 -4 4 -1 18 4 14 7 33 7 43 0 9 4 17 9 17 5 0 5 -15 1 -36z
m-1310 -9 c5 -14 14 -25 20 -25 5 0 10 -7 10 -16 0 -9 -5 -12 -12 -8 -8 5 -9
0 -6 -14 8 -30 -6 -27 -42 7 -39 37 -42 81 -5 81 18 0 28 -7 35 -25z m-1590
-16 c0 -11 5 -17 10 -14 6 3 10 1 10 -4 0 -18 -19 -12 -30 8 -13 25 -13 44 0
36 6 -3 10 -15 10 -26z m-240 -9 c0 -5 -7 -10 -16 -10 -8 0 -12 5 -9 10 3 6
10 10 16 10 5 0 9 -4 9 -10z m3025 -19 c-6 -5 -25 10 -25 20 0 5 6 4 14 -3 8
-7 12 -15 11 -17z m-3087 5 c-7 -8 -15 -12 -17 -11 -5 6 10 25 20 25 5 0 4 -6
-3 -14z m3152 -16 c0 -5 -7 -10 -16 -10 -8 0 -12 5 -9 10 3 6 10 10 16 10 5 0
9 -4 9 -10z m-2485 -21 c11 -17 -1 -21 -15 -4 -8 9 -8 15 -2 15 6 0 14 -5 17
-11z m89 -68 c11 -12 25 -21 32 -21 22 0 34 -33 19 -53 -11 -16 -13 -15 -24
11 -6 15 -27 40 -46 55 -19 15 -35 32 -35 38 0 13 30 -3 54 -30z m1401 29 c3
-5 -1 -10 -9 -10 -9 0 -16 5 -16 10 0 6 4 10 9 10 6 0 13 -4 16 -10z m-2082
-45 c4 -27 3 -35 -3 -25 -5 8 -10 28 -10 44 0 39 6 30 13 -19z m517 30 c0 -8
-2 -15 -4 -15 -2 0 -6 7 -10 15 -3 8 -1 15 4 15 6 0 10 -7 10 -15z m2620 -31
c-13 -33 -13 -34 6 -34 11 0 8 -8 -13 -31 -78 -85 -122 -117 -167 -124 -23 -4
-49 -14 -58 -22 -17 -15 -94 -14 -129 1 -9 4 -20 6 -25 5 -23 -4 -33 2 -29 19
3 15 -2 18 -21 14 -17 -3 -24 0 -24 11 0 9 -8 18 -17 20 -10 3 42 5 116 6 96
1 150 6 188 18 41 13 56 14 62 5 4 -7 14 1 25 23 11 19 25 35 33 35 7 0 18 12
24 27 10 26 28 53 35 53 2 0 -1 -12 -6 -26z m-2830 -93 c0 -4 -4 -21 -9 -37
-5 -16 -12 -41 -15 -56 -4 -16 -13 -28 -21 -28 -12 0 -12 -5 -4 -27 6 -18 6
-28 0 -33 -11 -6 -42 -116 -43 -153 -1 -19 -26 -148 -45 -227 -3 -14 -5 -40
-4 -58 2 -17 -1 -32 -6 -32 -17 0 -35 18 -29 28 3 6 1 14 -5 17 -5 4 -8 14 -5
22 3 8 3 20 -1 26 -19 28 -21 223 -4 240 10 9 14 8 22 -5 6 -10 17 -18 26 -18
12 0 15 8 10 40 -3 22 -1 40 4 40 5 0 9 11 9 25 0 18 7 28 25 35 15 6 23 15
19 24 -8 20 15 96 30 102 8 3 16 23 20 45 3 21 11 39 16 39 6 0 10 -4 10 -9z
m1385 -1 c3 -5 1 -10 -4 -10 -6 0 -11 5 -11 10 0 6 2 10 4 10 3 0 8 -4 11 -10z
m-29 -32 c-9 -5 -23 -5 -32 0 -12 6 -7 9 16 9 23 0 28 -3 16 -9z m217 -33 c1
-6 -8 -11 -20 -13 -13 -2 -23 -8 -23 -13 0 -5 -15 -10 -32 -10 l-33 -2 35 -7
c32 -7 30 -7 -20 -9 -41 0 -51 2 -40 10 11 8 6 9 -20 5 l-35 -6 25 24 c18 18
38 26 68 28 24 1 45 5 48 10 6 9 45 -5 47 -17z m37 -35 c0 -5 -2 -10 -4 -10
-3 0 -8 5 -11 10 -3 6 -1 10 4 10 6 0 11 -4 11 -10z m613 -42 c-3 -21 -9 -38
-14 -38 -10 0 -12 73 -2 84 13 13 20 -9 16 -46z m94 38 c2 -2 0 -19 -6 -37 -9
-32 -10 -33 -16 -11 -10 31 -27 23 -38 -19 -13 -45 -21 -20 -12 38 6 44 7 45
38 39 17 -3 32 -8 34 -10z m-227 -29 c0 14 46 11 62 -5 9 -9 5 -19 -20 -42
-20 -18 -32 -38 -32 -54 0 -14 -5 -28 -12 -32 -7 -4 -8 -3 -4 4 8 13 -46 6
-76 -9 -23 -12 -68 -11 -68 1 0 6 -16 10 -35 10 -36 0 -37 4 -7 50 2 2 7 -2
12 -10 7 -11 10 -12 10 -2 0 7 4 11 9 8 12 -8 22 20 14 39 -9 25 26 55 63 55
18 0 36 5 40 11 4 8 13 4 25 -12 10 -13 19 -19 19 -12z m-160 -37 c0 -5 -5
-10 -11 -10 -5 0 -7 5 -4 10 3 6 8 10 11 10 2 0 4 -4 4 -10z m-2290 -50 c0 -5
-4 -10 -10 -10 -5 0 -10 5 -10 10 0 6 5 10 10 10 6 0 10 -4 10 -10z m-10 -48
c0 -4 -4 -12 -9 -17 -5 -6 -11 -21 -14 -35 -3 -16 -5 -10 -6 18 -1 31 3 42 14
42 8 0 15 -4 15 -8z m100 -6 c0 -8 -4 -18 -10 -21 -5 -3 -10 3 -10 14 0 12 5
21 10 21 6 0 10 -6 10 -14z m34 -168 c3 -13 6 -41 6 -62 l0 -39 -22 24 c-30
32 -58 75 -58 89 0 5 15 10 34 10 26 0 35 -5 40 -22z"/>
<path d="M3825 3400 c-3 -5 -1 -10 4 -10 6 0 11 5 11 10 0 6 -2 10 -4 10 -3 0
-8 -4 -11 -10z"/>
<path d="M3718 3313 c7 -3 16 -2 19 1 4 3 -2 6 -13 5 -11 0 -14 -3 -6 -6z"/>
<path d="M3761 3284 c0 -11 3 -14 6 -6 3 7 2 16 -1 19 -3 4 -6 -2 -5 -13z"/>
<path d="M3550 3236 c0 -8 5 -18 10 -21 6 -3 10 3 10 14 0 12 -4 21 -10 21 -5
0 -10 -6 -10 -14z"/>
<path d="M3638 3243 c7 -3 16 -2 19 1 4 3 -2 6 -13 5 -11 0 -14 -3 -6 -6z"/>
<path d="M3840 2586 c0 -19 25 -27 39 -13 18 18 13 27 -14 27 -15 0 -25 -6
-25 -14z"/>
<path d="M3800 2455 c0 -8 5 -15 10 -15 6 0 10 7 10 15 0 8 -4 15 -10 15 -5 0
-10 -7 -10 -15z"/>
<path d="M3463 2118 c2 -39 5 -43 30 -46 29 -4 39 21 12 32 -8 3 -15 17 -15
31 0 15 -6 25 -15 25 -11 0 -14 -10 -12 -42z"/>
<path d="M3405 2050 c-3 -5 1 -10 10 -10 9 0 13 5 10 10 -3 6 -8 10 -10 10 -2
0 -7 -4 -10 -10z"/>
<path d="M3765 2029 c-4 -6 -5 -13 -2 -16 7 -7 27 6 27 18 0 12 -17 12 -25 -2z"/>
<path d="M2480 1549 c0 -5 5 -7 10 -4 6 3 10 8 10 11 0 2 -4 4 -10 4 -5 0 -10
-5 -10 -11z"/>
<path d="M3405 1130 c3 -5 11 -10 16 -10 6 0 7 5 4 10 -3 6 -11 10 -16 10 -6
0 -7 -4 -4 -10z"/>
<path d="M0 4548 c0 -23 4 -37 10 -33 5 3 10 14 10 24 0 9 5 22 11 28 7 7 4
12 -10 16 -19 5 -21 1 -21 -35z"/>
<path d="M400 4570 c0 -5 7 -7 15 -4 8 4 15 8 15 10 0 2 -7 4 -15 4 -8 0 -15
-4 -15 -10z"/>
<path d="M1741 4534 c0 -11 3 -14 6 -6 3 7 2 16 -1 19 -3 4 -6 -2 -5 -13z"/>
<path d="M600 4190 c0 -213 4 -330 10 -330 6 0 10 117 10 330 0 213 -4 330
-10 330 -6 0 -10 -117 -10 -330z"/>
<path d="M996 4287 c-8 -217 -6 -260 9 -245 3 3 4 113 3 244 l-3 239 -9 -238z"/>
<path d="M1302 4472 c-1 -27 1 -33 8 -22 12 19 13 47 2 54 -5 3 -9 -11 -10
-32z"/>
<path d="M1231 4474 c0 -11 3 -14 6 -6 3 7 2 16 -1 19 -3 4 -6 -2 -5 -13z"/>
<path d="M153 4400 c0 -25 2 -35 4 -22 2 12 2 32 0 45 -2 12 -4 2 -4 -23z"/>
<path d="M1124 4320 c0 -69 1 -97 3 -62 2 34 2 90 0 125 -2 34 -3 6 -3 -63z"/>
<path d="M4855 4270 c-3 -5 -1 -10 4 -10 6 0 11 5 11 10 0 6 -2 10 -4 10 -3 0
-8 -4 -11 -10z"/>
<path d="M4837 4243 c-4 -3 -7 -15 -7 -26 0 -17 5 -19 39 -13 28 4 42 2 51 -9
7 -8 33 -24 58 -35 24 -11 61 -35 81 -53 40 -36 188 -147 196 -147 3 0 5 18 5
40 0 33 -3 40 -19 40 -11 0 -23 5 -26 10 -3 6 -15 10 -26 10 -10 0 -19 4 -19
9 0 4 -20 16 -45 25 -25 10 -48 23 -52 29 -5 7 -28 23 -53 36 -25 13 -68 39
-96 58 -50 32 -74 40 -87 26z"/>
<path d="M1235 4190 c-3 -5 -1 -10 4 -10 6 0 11 5 11 10 0 6 -2 10 -4 10 -3 0
-8 -4 -11 -10z"/>
<path d="M1235 4160 c-3 -5 -1 -10 4 -10 6 0 11 5 11 10 0 6 -2 10 -4 10 -3 0
-8 -4 -11 -10z"/>
<path d="M5100 4140 c0 -5 5 -10 10 -10 6 0 10 5 10 10 0 6 -4 10 -10 10 -5 0
-10 -4 -10 -10z"/>
<path d="M5006 4121 c-4 -5 8 -21 25 -35 34 -29 63 -36 33 -8 -11 9 -27 25
-36 35 -9 9 -19 13 -22 8z"/>
<path d="M994 3310 c0 -58 1 -81 3 -52 2 28 2 76 0 105 -2 28 -3 5 -3 -53z"/>
<path d="M873 3235 c0 -27 2 -38 4 -22 2 15 2 37 0 50 -2 12 -4 0 -4 -28z"/>
<path d="M330 3101 c0 -5 -3 -18 -6 -28 -6 -16 -5 -16 9 2 19 23 21 35 7 35
-5 0 -10 -4 -10 -9z"/>
<path d="M288 3023 c7 -3 16 -2 19 1 4 3 -2 6 -13 5 -11 0 -14 -3 -6 -6z"/>
<path d="M170 2905 c-19 -7 -58 -14 -86 -14 -36 -1 -56 -6 -67 -19 -36 -40 -6
-43 85 -9 35 13 69 22 75 20 7 -3 25 5 39 16 22 18 24 21 8 20 -11 0 -35 -7
-54 -14z"/>
<path d="M620 2730 c0 -9 61 -20 105 -20 22 1 26 3 15 9 -20 11 -120 20 -120
11z"/>
<path d="M1123 2687 c-18 -5 -33 -13 -33 -17 0 -4 -21 -15 -46 -25 -25 -9 -63
-29 -85 -43 -30 -20 -36 -28 -28 -39 17 -20 56 -15 76 10 19 24 119 77 146 77
10 0 17 8 17 19 0 26 -9 30 -47 18z"/>
<path d="M266 2670 c7 -7 19 -7 35 -1 23 9 22 10 -10 10 -24 1 -32 -2 -25 -9z"/>
<path d="M740 2653 c-8 -3 -30 -19 -48 -34 -18 -16 -47 -35 -65 -43 -18 -7
-48 -28 -67 -45 -19 -18 -50 -39 -69 -47 -21 -9 -31 -19 -28 -28 4 -10 -5 -16
-31 -20 -96 -14 -112 -19 -112 -32 0 -10 13 -14 40 -14 29 0 40 -4 40 -15 0
-9 -9 -15 -25 -15 -14 0 -33 -8 -43 -17 -9 -10 -26 -17 -38 -15 -29 4 -163
-25 -180 -39 -22 -18 -16 -29 16 -29 17 0 30 5 30 10 0 7 13 9 33 5 21 -4 50
0 82 13 28 11 66 22 86 26 47 8 79 32 61 45 -10 6 -4 10 21 15 43 8 88 -2 104
-23 11 -14 12 -12 13 12 0 15 5 27 10 27 6 0 10 10 10 23 0 12 4 27 8 33 12
18 50 23 63 8 6 -8 22 -14 35 -14 13 0 24 -4 24 -10 0 -5 15 -1 33 9 34 19 48
57 25 73 -9 7 -8 8 5 4 64 -21 171 -17 136 4 -7 5 -22 7 -31 4 -25 -8 -83 25
-69 39 16 16 14 44 -5 72 -16 24 -34 29 -64 18z"/>
<path d="M880 2635 c0 -8 7 -15 15 -15 8 0 15 7 15 15 0 8 -7 15 -15 15 -8 0
-15 -7 -15 -15z"/>
<path d="M160 2621 c0 -5 -10 -12 -22 -14 -15 -3 -9 -5 14 -6 39 -1 59 13 32
23 -21 8 -24 8 -24 -3z"/>
<path d="M160 2572 c0 -5 -12 -7 -27 -5 -16 2 -35 -1 -43 -7 -13 -9 -13 -11 0
-20 16 -10 44 -5 73 15 12 8 15 15 8 20 -6 3 -11 2 -11 -3z"/>
<path d="M423 2555 c-3 -9 -3 -18 0 -21 9 -9 48 16 42 27 -9 14 -35 11 -42 -6z"/>
<path d="M4730 2540 c-14 -4 -56 -20 -95 -35 -38 -15 -80 -29 -93 -32 -13 -3
-21 -11 -19 -17 4 -13 87 -9 102 5 5 5 21 9 36 9 15 0 32 7 39 15 7 8 16 13
20 10 4 -2 17 9 29 25 23 32 21 33 -19 20z"/>
<path d="M93 2513 c-7 -2 -13 -9 -13 -14 0 -14 24 -11 46 6 19 14 19 14 -1 14
-11 0 -26 -3 -32 -6z"/>
<path d="M344 2506 c-10 -8 -23 -13 -29 -12 -5 2 -7 1 -2 -1 24 -14 -3 -23
-75 -24 l-83 -2 77 -10 c65 -8 80 -7 92 6 9 8 29 18 45 22 16 3 31 12 34 19 7
17 -36 19 -59 2z"/>
<path d="M1280 2485 c0 -19 20 -28 52 -23 21 3 21 4 -11 21 -41 21 -41 21 -41
2z"/>
<path d="M183 2433 c9 -2 23 -2 30 0 6 3 -1 5 -18 5 -16 0 -22 -2 -12 -5z"/>
<path d="M622 2394 c-27 -18 -29 -34 -4 -34 18 0 52 29 52 43 0 12 -25 7 -48
-9z"/>
<path d="M268 2353 c7 -3 16 -2 19 1 4 3 -2 6 -13 5 -11 0 -14 -3 -6 -6z"/>
<path d="M475 2328 c-11 -6 -26 -20 -33 -30 -11 -14 -21 -17 -47 -12 -27 5
-33 3 -31 -10 4 -26 11 -27 69 -12 63 17 107 42 107 62 0 17 -37 18 -65 2z"/>
<path d="M230 2160 c0 -28 4 -40 14 -40 10 0 17 -16 22 -45 3 -25 8 -45 9 -45
24 0 31 16 28 67 -2 55 -12 80 -20 56 -8 -22 -21 -14 -28 17 -9 43 -25 37 -25
-10z"/>
<path d="M60 2135 c-7 -8 -19 -15 -26 -15 -8 0 -14 -4 -14 -10 0 -5 4 -10 9
-10 6 0 13 5 16 10 3 6 15 10 26 10 20 0 26 15 10 24 -5 3 -14 -1 -21 -9z"/>
<path d="M86 2092 c-10 -12 -16 -28 -13 -36 4 -9 -1 -17 -11 -19 -14 -4 -15
-5 -1 -6 23 -2 51 34 47 59 l-3 22 -19 -20z"/>
<path d="M28 1978 c-26 -29 -40 -76 -18 -63 5 3 10 15 10 26 0 10 5 19 10 19
6 0 10 -10 10 -22 0 -30 16 -11 25 29 9 43 -5 47 -37 11z"/>
<path d="M40 1600 c0 -22 5 -40 10 -40 6 0 10 18 10 40 0 22 -4 40 -10 40 -5
0 -10 -18 -10 -40z"/>
<path d="M4520 1553 c0 -35 3 -44 10 -33 13 20 13 80 0 80 -5 0 -10 -21 -10
-47z"/>
<path d="M110 1390 c0 -11 5 -20 10 -20 6 0 10 9 10 20 0 11 -4 20 -10 20 -5
0 -10 -9 -10 -20z"/>
</g>
</svg>
